<svg width="83" height="31" viewBox="0 0 83 31" fill="none" xmlns="http://www.w3.org/2000/svg">
<path fill-rule="evenodd" clip-rule="evenodd" d="M6.22816 9.33577C6.06706 9.33577 6.02728 9.25489 6.1075 9.13489L6.95146 8.04961C7.03101 7.92895 7.23256 7.84873 7.39299 7.84873H21.7376C21.8987 7.84873 21.9385 7.9694 21.8583 8.09006L21.1754 9.13489C21.0952 9.25489 20.8943 9.37555 20.7737 9.37555L6.22816 9.33577ZM0.160684 13.0318C0.000245641 13.0318 -0.0401953 12.9523 0.0400237 12.8309L0.883981 11.7463C0.9642 11.6257 1.16508 11.5454 1.32618 11.5454H19.6479C19.8084 11.5454 19.8893 11.6661 19.8488 11.7868L19.5273 12.7507C19.4875 12.9118 19.3264 12.992 19.166 12.992L0.160684 13.0318ZM9.88376 16.7285C9.72332 16.7285 9.68355 16.6079 9.76377 16.4872L10.326 15.4828C10.4068 15.3621 10.5673 15.2421 10.7284 15.2421H18.7635C18.9246 15.2421 19.0049 15.3621 19.0049 15.5232L18.9253 16.4872C18.9253 16.6483 18.7642 16.769 18.6435 16.769L9.88376 16.7285ZM51.591 8.61247C49.0592 9.25555 47.3315 9.73753 44.8407 10.3799C44.2374 10.541 44.1976 10.5808 43.6752 9.97819C43.0726 9.29533 42.6304 8.85313 41.7871 8.45137C39.2552 7.20632 36.8042 7.56764 34.5143 9.05467C31.7822 10.8221 30.3761 13.4336 30.4159 16.6881C30.4556 19.9028 32.666 22.5547 35.8403 22.9969C38.5723 23.3582 40.8629 22.3936 42.6708 20.345C43.0321 19.9028 43.3537 19.4208 43.7554 18.858H36.0007C35.1574 18.858 34.9565 18.3356 35.2376 17.6527C35.76 16.407 36.724 14.318 37.2862 13.2731C37.4075 13.0318 37.6886 12.6301 38.2912 12.6301H52.9163C52.8368 13.7153 52.8368 14.7999 52.6757 15.8852C52.2335 18.7778 51.1488 21.4296 49.3807 23.76C46.4875 27.5773 42.7112 29.9474 37.9293 30.5905C33.9919 31.1129 30.3356 30.3492 27.1216 27.9386C24.1482 25.6885 22.4609 22.7151 22.0187 19.0191C21.4963 14.6395 22.7818 10.7015 25.4337 7.2461C28.2864 3.50961 32.0633 1.13885 36.6842 0.294888C40.4611 -0.387969 44.077 0.054229 47.3315 2.2639C49.4609 3.67005 50.9877 5.59863 51.9921 7.92896C52.2334 8.29094 52.073 8.49181 51.5904 8.61181L51.591 8.61247Z" fill="white"/>
<path d="M64.8904 30.832C61.2342 30.7511 57.8988 29.7069 55.0865 27.2957C52.7157 25.2471 51.2293 22.635 50.7473 19.541C50.024 15.001 51.2691 10.9827 54.0019 7.40735C56.9348 3.54955 60.4704 1.54076 65.2524 0.6968C69.3502 -0.0258343 73.208 0.375924 76.7032 2.74603C79.8775 4.91592 81.8458 7.84889 82.3682 11.706C83.0511 17.1304 81.4845 21.5504 77.7473 25.3274C75.0955 28.019 71.841 29.7069 68.1045 30.47C67.0199 30.6709 65.9346 30.7113 64.8904 30.832ZM74.4531 14.5992C74.4133 14.0768 74.4133 13.675 74.3324 13.2733C73.6098 9.29549 69.9528 7.04537 66.1361 7.92977C62.399 8.77307 59.9884 11.1438 59.1047 14.9208C58.3814 18.0546 59.9082 21.2289 62.8008 22.5144C65.0111 23.479 67.2208 23.3583 69.3502 22.2737C72.5245 20.6263 74.2522 18.0546 74.4531 14.5992V14.5992Z" fill="white"/>
</svg>
