<svg width="71" height="27" viewBox="0 0 71 27" fill="none" xmlns="http://www.w3.org/2000/svg">
<path d="M2.53704 26.2621C2.20715 26.2706 1.87888 26.2134 1.57132 26.0938C1.26377 25.9742 0.983074 25.7946 0.745588 25.5655C0.510213 25.3444 0.322624 25.0775 0.194391 24.7812C0.0661574 24.4848 0 24.1653 0 23.8424C0 23.5195 0.0661574 23.2001 0.194391 22.9037C0.322624 22.6074 0.510213 22.3405 0.745588 22.1194C0.981029 21.8858 1.2608 21.7016 1.56845 21.5777C1.87609 21.4538 2.20541 21.3927 2.53704 21.3979C2.87074 21.391 3.20242 21.4513 3.51232 21.5753C3.82222 21.6993 4.10402 21.8843 4.34093 22.1194C4.57961 22.3385 4.77017 22.6048 4.90053 22.9014C5.03089 23.198 5.0982 23.5185 5.0982 23.8424C5.0982 24.1664 5.03089 24.4869 4.90053 24.7835C4.77017 25.0801 4.57961 25.3464 4.34093 25.5655C4.10196 25.7961 3.81924 25.9766 3.50943 26.0962C3.19962 26.2159 2.86899 26.2723 2.53704 26.2621ZM30.6653 25.864H26.0871L14.0446 6.85478C13.7427 6.38356 13.4885 5.88347 13.2857 5.36191H13.1738C13.3057 6.53887 13.3556 7.72359 13.3231 8.90748V25.864H9.26741V0H14.1441L25.8507 18.5614C26.3484 19.3327 26.6594 19.8055 26.8087 20.1538H26.8709C26.7301 18.9983 26.6719 17.8342 26.6967 16.6704V0H30.7275L30.6653 25.864ZM50.3712 25.864H36.2138V0H49.8114V3.6451H40.3938V10.9726H49.1023V14.5928H40.3938V22.2438H50.3463L50.3712 25.864ZM70.5001 3.6451H63.2472V25.864H59.0547V3.6451H51.8268V0H70.4877L70.5001 3.6451Z" fill="white"/>
</svg>
