<svg width="70" height="34" viewBox="0 0 70 34" fill="none" xmlns="http://www.w3.org/2000/svg">
<path d="M21.1802 23.5954C20.0347 24.667 18.7627 25.1094 17.3618 25.5651C15.961 26.0215 14.1783 25.9273 12.0106 25.9273H7.09778L5.73621 33.784H0L5.11867 7.07107H16.1495C19.4682 7.07107 21.8889 8.02566 23.4107 9.7675C24.9326 11.5093 25.3899 13.9819 24.7833 17.1033C24.5327 18.3895 24.1108 19.5853 23.5152 20.6507C22.8981 21.7499 22.1099 22.7439 21.1802 23.5954ZM37.9237 25.9273L40.1873 14.5978C40.445 13.2716 40.3507 12.2864 39.9036 11.8048C39.4558 11.3224 38.5036 10.9994 37.0477 10.9994H32.4986L29.5673 25.9273H23.8759L28.9945 0H34.686L33.3252 7.07107H38.3951C41.5858 7.07107 43.7856 7.71139 44.9964 8.82391C46.2071 9.93642 46.5701 11.4606 46.0861 13.9528L43.7047 25.9273H37.9237ZM69.5542 17.145C69.3043 18.4311 68.8817 19.6065 68.2869 20.6711C67.6914 21.7373 66.9135 22.7123 65.9527 23.5954C64.8071 24.667 63.5343 25.1094 62.1343 25.5651C60.7342 26.0215 58.9499 25.9273 56.7823 25.9273H51.8694L50.5087 33.784H44.7724L49.8903 7.07107H60.922C64.2407 7.07107 66.6613 8.02566 68.1824 9.7675C69.7027 11.5093 70.1607 14.0243 69.5542 17.145ZM58.748 10.9994H54.8189L52.6763 21.9989H56.1663C58.4778 21.9989 60.2015 21.771 61.3329 20.8989C62.4658 20.0284 63.2287 18.6771 63.6255 16.6398C64.0058 14.6827 63.8329 13.1561 63.1069 12.3516C62.3802 11.5471 60.9275 10.9994 58.748 10.9994ZM13.9764 10.9994H10.0464L7.90388 21.9989H11.3931C13.7053 21.9989 15.4283 21.771 16.5604 20.8989C17.6926 20.0284 18.4563 18.6771 18.8523 16.6398C19.2325 14.6827 19.0597 13.1561 18.3337 12.3516C17.6078 11.5471 16.1558 10.9994 13.9764 10.9994Z" fill="white"/>
</svg>
