<svg width="60" height="61" viewBox="0 0 60 61" fill="none" xmlns="http://www.w3.org/2000/svg">
<g clip-path="url(#clip0_1_87)">
<path d="M29.8463 0.119176C27.3922 0.130801 25.0498 0.33947 22.9875 0.704497C16.9134 1.77749 15.8114 4.02345 15.8114 8.16604V13.6362H30.1642V15.4596H10.4243C6.25323 15.4596 2.60064 17.9666 1.45789 22.7375C0.13961 28.2042 0.0814843 31.6161 1.45789 37.3246C2.47799 41.5741 4.9146 44.6013 9.08626 44.6013H14.0217V38.0436C14.0217 33.3058 18.1201 29.1272 22.9881 29.1272H37.3247C41.3156 29.1272 44.5008 25.8408 44.5008 21.8336V8.16662C44.5008 4.2763 41.2191 1.35434 37.3247 0.705079C34.8579 0.294714 32.2998 0.108132 29.8463 0.119176V0.119176ZM22.0842 4.51868C23.5664 4.51868 24.7778 5.74919 24.7778 7.26278C24.7778 8.76996 23.567 9.98885 22.0842 9.98885C20.5962 9.98885 19.3913 8.76996 19.3913 7.26278C19.3907 5.74919 20.5962 4.51868 22.0842 4.51868V4.51868Z" fill="#386F9F"/>
<path d="M46.2907 15.4596V21.8336C46.2907 26.7743 42.101 30.9332 37.3243 30.9332H22.9877C19.0607 30.9332 15.8115 34.2946 15.8115 38.2273V51.8955C15.8115 55.7846 19.1933 58.073 22.9877 59.1885C27.5307 60.5236 31.8878 60.7654 37.3243 59.1885C40.9373 58.1416 44.5004 56.0363 44.5004 51.8955V46.4247H30.1644V44.6007H51.6777C55.8488 44.6007 57.4042 41.6916 58.8551 37.324C60.3535 32.8281 60.289 28.5041 58.8551 22.7369C57.8239 18.5839 55.8552 15.459 51.6777 15.459H46.2907V15.4596ZM38.227 50.0715C39.7156 50.0715 40.9205 51.2904 40.9205 52.7987C40.9205 54.3112 39.715 55.5417 38.227 55.5417C36.7448 55.5417 35.534 54.3112 35.534 52.7987C35.534 51.2904 36.7448 50.0715 38.227 50.0715V50.0715Z" fill="#FFCF46"/>
</g>
<defs>
<clipPath id="clip0_1_87">
<rect width="60" height="61" fill="white"/>
</clipPath>
</defs>
</svg>
